<?xml version="1.0" encoding="utf-8"?>
<!-- Generator: Adobe Illustrator 28.2.0, SVG Export Plug-In . SVG Version: 6.00 Build 0)  -->
<svg version="1.1" id="katman_1" xmlns="http://www.w3.org/2000/svg" xmlns:xlink="http://www.w3.org/1999/xlink" x="0px" y="0px"
	 viewBox="0 0 500 500" style="enable-background:new 0 0 500 500;" xml:space="preserve">
<style type="text/css">
	.st0{fill-rule:evenodd;clip-rule:evenodd;fill:#222222;}
</style>
<g id="SVGRepo_bgCarrier">
</g>
<g id="SVGRepo_tracerCarrier">
</g>
<g id="SVGRepo_iconCarrier">
	<path class="st0" d="M500,250c0,138.1-111.9,250-250,250C111.9,500,0,388.1,0,250C0,111.9,111.9,0,250,0C388.1,0,500,111.9,500,250
		z M166.7,148.4c-0.5-4.6-3.1-8.9-7.4-11.4c-2.6-1.5-5.6-2.2-8.4-2c-3-0.2-6.1,0.5-8.8,2.3c-4.4,2.7-6.8,7.3-7,12.1
		c-16.4,31-25,65.5-25,100.6c0,37.7,9.9,74.8,28.8,107.5c4.1,7.2,13.3,9.6,20.5,5.5c7.2-4.1,9.6-13.3,5.5-20.5
		c-16.2-28.1-24.8-60-24.8-92.5c0-23.1,4.3-46,12.7-67.4l105.6,168.9c0.5,4.6,3.1,8.9,7.4,11.4c2.6,1.5,5.6,2.2,8.4,2
		c3,0.2,6.1-0.5,8.8-2.3c4.4-2.7,6.8-7.3,7-12.1c16.4-31,25-65.5,25-100.6c0-37.7-9.9-74.8-28.8-107.5c-4.1-7.2-13.3-9.6-20.5-5.5
		c-7.2,4.1-9.6,13.3-5.5,20.5c16.2,28.1,24.8,60,24.8,92.5c0,23.1-4.3,46-12.7,67.4L166.7,148.4z M350.2,120
		c-4.1-7.2-1.7-16.3,5.5-20.5c7.2-4.1,16.3-1.7,20.5,5.5c25.5,44.1,38.9,94.1,38.9,145c0,50.9-13.4,100.9-38.9,145
		c-4.1,7.2-13.3,9.6-20.5,5.5c-7.2-4.1-9.6-13.3-5.5-20.5C373,340.5,385,295.6,385,250S373,159.5,350.2,120z"/>
</g>
</svg>
